<?xml version="1.0" encoding="UTF-8"?>
<svg xmlns="http://www.w3.org/2000/svg" xmlns:xlink="http://www.w3.org/1999/xlink" viewBox="0 0 50 50" width="50px" height="50px">
<g id="surface85260322">
<path style=" stroke:none;fill-rule:nonzero;fill:rgb(100%,100%,100%);fill-opacity:1;" d="M 46.539062 2.007812 C 46.195312 2 45.695312 1.996094 45.066406 2.015625 C 41.292969 2.152344 32.914062 3.261719 26.203125 9.96875 C 23.722656 12.453125 22.554688 14.261719 20.5 17 L 9.425781 17 L 1.75 30.160156 L 4.730469 33.144531 L 13.730469 30.144531 L 19.855469 36.269531 L 16.855469 45.269531 L 19.839844 48.25 L 33 40.574219 L 33 29.503906 C 35.726562 27.449219 37.5625 26.296875 40.046875 23.8125 C 48.988281 14.867188 47.984375 2.945312 47.984375 2.945312 L 47.910156 2.105469 L 47.066406 2.035156 C 47.066406 2.035156 46.882812 2.019531 46.539062 2.007812 Z M 45.050781 4.015625 C 45.644531 3.992188 45.675781 4.011719 45.996094 4.023438 C 46.054688 6.210938 45.878906 15.148438 38.628906 22.394531 C 36.148438 24.878906 34.445312 25.871094 31.390625 28.203125 L 31 28.503906 L 31 39.425781 L 20.160156 45.75 L 19.144531 44.730469 L 22.144531 35.730469 L 14.269531 27.855469 L 5.269531 30.855469 L 4.25 29.839844 L 10.574219 19 L 21.496094 19 L 21.796875 18.605469 C 24.121094 15.539062 25.128906 13.875 27.621094 11.386719 C 33.816406 5.1875 41.5625 4.148438 45.050781 4.015625 Z M 38 8.007812 C 36.972656 8.007812 35.949219 8.394531 35.171875 9.171875 C 33.621094 10.726562 33.617188 13.273438 35.171875 14.828125 C 36.726562 16.382812 39.277344 16.382812 40.828125 14.828125 C 42.382812 13.273438 42.382812 10.722656 40.828125 9.171875 C 40.054688 8.394531 39.027344 8.003906 38 8.007812 Z M 38 9.992188 C 38.511719 9.996094 39.019531 10.191406 39.414062 10.585938 C 40.203125 11.375 40.203125 12.625 39.414062 13.414062 C 38.625 14.203125 37.375 14.203125 36.585938 13.414062 C 35.796875 12.625 35.796875 11.375 36.585938 10.585938 L 36.585938 10.582031 C 36.980469 10.191406 37.488281 9.992188 38 9.992188 Z M 38 9.992188 "/>
</g>
</svg>
